<mxfile host="app.diagrams.net" modified="2022-05-13T03:49:55.196Z" agent="5.0 (X11; Linux x86_64) AppleWebKit/537.36 (KHTML, like Gecko) Chrome/83.0.4103.116 Safari/537.36" etag="xf2ZxYZ2NMhzajICIbZh" version="18.0.3" type="github">
  <diagram id="C5RBs43oDa-KdzZeNtuy" name="Page-1">
    <mxGraphModel dx="1185" dy="1810" grid="1" gridSize="10" guides="1" tooltips="1" connect="1" arrows="1" fold="1" page="1" pageScale="1" pageWidth="827" pageHeight="1169" math="0" shadow="0">
      <root>
        <mxCell id="WIyWlLk6GJQsqaUBKTNV-0" />
        <mxCell id="WIyWlLk6GJQsqaUBKTNV-1" parent="WIyWlLk6GJQsqaUBKTNV-0" />
        <mxCell id="gamc50u9EzoZNg_85G7x-43" value="&lt;h1&gt;SCRT Network&lt;/h1&gt;" style="rounded=0;whiteSpace=wrap;html=1;dashed=1;align=left;verticalAlign=top;" vertex="1" parent="WIyWlLk6GJQsqaUBKTNV-1">
          <mxGeometry x="40" y="470" width="1270" height="850" as="geometry" />
        </mxCell>
        <mxCell id="gamc50u9EzoZNg_85G7x-42" value="&amp;nbsp; Pending" style="rounded=1;whiteSpace=wrap;html=1;dashed=1;align=left;verticalAlign=top;" vertex="1" parent="WIyWlLk6GJQsqaUBKTNV-1">
          <mxGeometry x="390" y="620" width="150" height="280" as="geometry" />
        </mxCell>
        <mxCell id="gamc50u9EzoZNg_85G7x-52" style="edgeStyle=orthogonalEdgeStyle;rounded=0;orthogonalLoop=1;jettySize=auto;html=1;entryX=0;entryY=0.5;entryDx=0;entryDy=0;startArrow=none;" edge="1" parent="WIyWlLk6GJQsqaUBKTNV-1" source="gamc50u9EzoZNg_85G7x-54" target="gamc50u9EzoZNg_85G7x-45">
          <mxGeometry relative="1" as="geometry" />
        </mxCell>
        <mxCell id="gamc50u9EzoZNg_85G7x-53" style="edgeStyle=orthogonalEdgeStyle;rounded=0;orthogonalLoop=1;jettySize=auto;html=1;entryX=0.5;entryY=0;entryDx=0;entryDy=0;" edge="1" parent="WIyWlLk6GJQsqaUBKTNV-1" source="gamc50u9EzoZNg_85G7x-38" target="gamc50u9EzoZNg_85G7x-13">
          <mxGeometry relative="1" as="geometry" />
        </mxCell>
        <mxCell id="gamc50u9EzoZNg_85G7x-38" value="" style="rounded=0;whiteSpace=wrap;html=1;" vertex="1" parent="WIyWlLk6GJQsqaUBKTNV-1">
          <mxGeometry x="660" y="630" width="420" height="120" as="geometry" />
        </mxCell>
        <mxCell id="gamc50u9EzoZNg_85G7x-32" value="Future&amp;nbsp; &amp;nbsp; &amp;nbsp; &amp;nbsp; &amp;nbsp; &amp;nbsp; &amp;nbsp; &amp;nbsp; &amp;nbsp;" style="rounded=1;whiteSpace=wrap;html=1;dashed=1;align=right;verticalAlign=bottom;" vertex="1" parent="WIyWlLk6GJQsqaUBKTNV-1">
          <mxGeometry x="720" y="830" width="530" height="430" as="geometry" />
        </mxCell>
        <mxCell id="gamc50u9EzoZNg_85G7x-13" value="&amp;nbsp; &amp;nbsp;Active Adapters" style="rounded=1;whiteSpace=wrap;html=1;align=left;verticalAlign=top;" vertex="1" parent="WIyWlLk6GJQsqaUBKTNV-1">
          <mxGeometry x="720" y="830" width="300" height="240" as="geometry" />
        </mxCell>
        <mxCell id="FIAD7fH9w6Ogacx7huTE-68" value="" style="rounded=0;whiteSpace=wrap;html=1;" parent="WIyWlLk6GJQsqaUBKTNV-1" vertex="1">
          <mxGeometry x="690" y="-120" width="860" height="460" as="geometry" />
        </mxCell>
        <mxCell id="FIAD7fH9w6Ogacx7huTE-91" value="" style="rounded=0;whiteSpace=wrap;html=1;" parent="WIyWlLk6GJQsqaUBKTNV-1" vertex="1">
          <mxGeometry x="750" y="-90" width="740" height="60" as="geometry" />
        </mxCell>
        <mxCell id="FIAD7fH9w6Ogacx7huTE-69" style="edgeStyle=orthogonalEdgeStyle;rounded=0;orthogonalLoop=1;jettySize=auto;html=1;exitX=0;exitY=0.25;exitDx=0;exitDy=0;entryX=1;entryY=0.75;entryDx=0;entryDy=0;" parent="WIyWlLk6GJQsqaUBKTNV-1" source="FIAD7fH9w6Ogacx7huTE-68" target="WIyWlLk6GJQsqaUBKTNV-3" edge="1">
          <mxGeometry relative="1" as="geometry" />
        </mxCell>
        <mxCell id="FIAD7fH9w6Ogacx7huTE-70" value="Revenue Fees" style="edgeLabel;html=1;align=center;verticalAlign=middle;resizable=0;points=[];" parent="FIAD7fH9w6Ogacx7huTE-69" vertex="1" connectable="0">
          <mxGeometry x="-0.4857" y="-1" relative="1" as="geometry">
            <mxPoint x="-5" y="-14" as="offset" />
          </mxGeometry>
        </mxCell>
        <mxCell id="FIAD7fH9w6Ogacx7huTE-2" value="" style="rounded=0;whiteSpace=wrap;html=1;" parent="WIyWlLk6GJQsqaUBKTNV-1" vertex="1">
          <mxGeometry x="290" y="65" width="300" height="85" as="geometry" />
        </mxCell>
        <mxCell id="WIyWlLk6GJQsqaUBKTNV-2" value="" style="rounded=0;html=1;jettySize=auto;orthogonalLoop=1;fontSize=11;endArrow=block;endFill=0;endSize=8;strokeWidth=1;shadow=0;labelBackgroundColor=none;edgeStyle=orthogonalEdgeStyle;exitX=0.817;exitY=0.975;exitDx=0;exitDy=0;exitPerimeter=0;" parent="WIyWlLk6GJQsqaUBKTNV-1" source="WIyWlLk6GJQsqaUBKTNV-3" target="FIAD7fH9w6Ogacx7huTE-2" edge="1">
          <mxGeometry relative="1" as="geometry">
            <mxPoint x="160" y="60" as="targetPoint" />
          </mxGeometry>
        </mxCell>
        <mxCell id="FIAD7fH9w6Ogacx7huTE-3" value="Portion Allowances" style="edgeLabel;html=1;align=center;verticalAlign=middle;resizable=0;points=[];" parent="WIyWlLk6GJQsqaUBKTNV-2" vertex="1" connectable="0">
          <mxGeometry x="0.2" relative="1" as="geometry">
            <mxPoint x="-35" y="-12" as="offset" />
          </mxGeometry>
        </mxCell>
        <mxCell id="FIAD7fH9w6Ogacx7huTE-22" style="edgeStyle=orthogonalEdgeStyle;rounded=0;orthogonalLoop=1;jettySize=auto;html=1;exitX=0.25;exitY=1;exitDx=0;exitDy=0;entryX=0.5;entryY=0;entryDx=0;entryDy=0;" parent="WIyWlLk6GJQsqaUBKTNV-1" source="WIyWlLk6GJQsqaUBKTNV-3" target="FIAD7fH9w6Ogacx7huTE-11" edge="1">
          <mxGeometry relative="1" as="geometry">
            <mxPoint x="240" as="targetPoint" />
            <Array as="points">
              <mxPoint x="220" y="-40" />
              <mxPoint x="220" y="10" />
              <mxPoint x="130" y="10" />
            </Array>
          </mxGeometry>
        </mxCell>
        <mxCell id="FIAD7fH9w6Ogacx7huTE-23" value="Recurring&lt;br&gt;Amount" style="edgeLabel;html=1;align=center;verticalAlign=middle;resizable=0;points=[];" parent="FIAD7fH9w6Ogacx7huTE-22" vertex="1" connectable="0">
          <mxGeometry x="0.2655" relative="1" as="geometry">
            <mxPoint x="50" y="-20" as="offset" />
          </mxGeometry>
        </mxCell>
        <mxCell id="FIAD7fH9w6Ogacx7huTE-89" style="edgeStyle=orthogonalEdgeStyle;rounded=0;orthogonalLoop=1;jettySize=auto;html=1;exitX=1;exitY=0.25;exitDx=0;exitDy=0;" parent="WIyWlLk6GJQsqaUBKTNV-1" source="WIyWlLk6GJQsqaUBKTNV-3" edge="1">
          <mxGeometry relative="1" as="geometry">
            <mxPoint x="750" y="-70" as="targetPoint" />
          </mxGeometry>
        </mxCell>
        <mxCell id="FIAD7fH9w6Ogacx7huTE-90" value="Rewards" style="edgeLabel;html=1;align=center;verticalAlign=middle;resizable=0;points=[];" parent="FIAD7fH9w6Ogacx7huTE-89" vertex="1" connectable="0">
          <mxGeometry x="-0.656" y="2" relative="1" as="geometry">
            <mxPoint x="9" y="-8" as="offset" />
          </mxGeometry>
        </mxCell>
        <mxCell id="WIyWlLk6GJQsqaUBKTNV-3" value="Master Treasury" style="rounded=1;whiteSpace=wrap;html=1;fontSize=12;glass=0;strokeWidth=1;shadow=0;" parent="WIyWlLk6GJQsqaUBKTNV-1" vertex="1">
          <mxGeometry x="215" y="-80" width="120" height="40" as="geometry" />
        </mxCell>
        <mxCell id="WIyWlLk6GJQsqaUBKTNV-7" value="Finance Manager" style="rounded=1;whiteSpace=wrap;html=1;fontSize=12;glass=0;strokeWidth=1;shadow=0;" parent="WIyWlLk6GJQsqaUBKTNV-1" vertex="1">
          <mxGeometry x="310" y="85" width="120" height="40" as="geometry" />
        </mxCell>
        <mxCell id="FIAD7fH9w6Ogacx7huTE-0" value="Committee Manager" style="rounded=1;whiteSpace=wrap;html=1;fontSize=12;glass=0;strokeWidth=1;shadow=0;" parent="WIyWlLk6GJQsqaUBKTNV-1" vertex="1">
          <mxGeometry x="450" y="85" width="120" height="40" as="geometry" />
        </mxCell>
        <mxCell id="FIAD7fH9w6Ogacx7huTE-4" value="Committee Multisig" style="rounded=1;whiteSpace=wrap;html=1;" parent="WIyWlLk6GJQsqaUBKTNV-1" vertex="1">
          <mxGeometry x="450" y="230" width="120" height="60" as="geometry" />
        </mxCell>
        <mxCell id="FIAD7fH9w6Ogacx7huTE-6" value="" style="endArrow=classic;html=1;rounded=0;exitX=0.5;exitY=1;exitDx=0;exitDy=0;entryX=0.5;entryY=0;entryDx=0;entryDy=0;" parent="WIyWlLk6GJQsqaUBKTNV-1" source="FIAD7fH9w6Ogacx7huTE-0" target="FIAD7fH9w6Ogacx7huTE-4" edge="1">
          <mxGeometry width="50" height="50" relative="1" as="geometry">
            <mxPoint x="376" y="260" as="sourcePoint" />
            <mxPoint x="426" y="210" as="targetPoint" />
          </mxGeometry>
        </mxCell>
        <mxCell id="FIAD7fH9w6Ogacx7huTE-11" value="Governance&lt;br&gt;&lt;div style=&quot;text-align: left&quot;&gt;&lt;span&gt;- Grants&lt;/span&gt;&lt;/div&gt;&lt;div style=&quot;text-align: left&quot;&gt;&lt;span&gt;- Proposal Funding&lt;/span&gt;&lt;/div&gt;" style="rounded=1;whiteSpace=wrap;html=1;fontSize=12;glass=0;strokeWidth=1;shadow=0;" parent="WIyWlLk6GJQsqaUBKTNV-1" vertex="1">
          <mxGeometry x="70" y="90" width="120" height="50" as="geometry" />
        </mxCell>
        <mxCell id="FIAD7fH9w6Ogacx7huTE-15" value="" style="rounded=0;whiteSpace=wrap;html=1;align=left;" parent="WIyWlLk6GJQsqaUBKTNV-1" vertex="1">
          <mxGeometry x="180" y="230" width="250" height="190" as="geometry" />
        </mxCell>
        <mxCell id="FIAD7fH9w6Ogacx7huTE-16" value="L1 Staking&lt;br&gt;&lt;div style=&quot;text-align: left&quot;&gt;&lt;span&gt;- SCRT&lt;/span&gt;&lt;/div&gt;&lt;div style=&quot;text-align: left&quot;&gt;&lt;span&gt;- ATOM&lt;/span&gt;&lt;/div&gt;&lt;div style=&quot;text-align: left&quot;&gt;&lt;span&gt;- JUNO&lt;/span&gt;&lt;/div&gt;" style="rounded=1;whiteSpace=wrap;html=1;" parent="WIyWlLk6GJQsqaUBKTNV-1" vertex="1">
          <mxGeometry x="190" y="250" width="100" height="60" as="geometry" />
        </mxCell>
        <mxCell id="FIAD7fH9w6Ogacx7huTE-17" value="LP Providing" style="rounded=1;whiteSpace=wrap;html=1;" parent="WIyWlLk6GJQsqaUBKTNV-1" vertex="1">
          <mxGeometry x="314" y="250" width="100" height="30" as="geometry" />
        </mxCell>
        <mxCell id="FIAD7fH9w6Ogacx7huTE-18" value="LP Farming" style="rounded=1;whiteSpace=wrap;html=1;" parent="WIyWlLk6GJQsqaUBKTNV-1" vertex="1">
          <mxGeometry x="314" y="290" width="100" height="30" as="geometry" />
        </mxCell>
        <mxCell id="FIAD7fH9w6Ogacx7huTE-19" value="L2 Staking&lt;br&gt;&lt;div style=&quot;text-align: left&quot;&gt;&lt;span&gt;- SHD&lt;/span&gt;&lt;/div&gt;&lt;div style=&quot;text-align: left&quot;&gt;&lt;span&gt;- SIENNA&lt;/span&gt;&lt;/div&gt;&lt;div style=&quot;text-align: left&quot;&gt;&lt;span&gt;- SEFI&lt;/span&gt;&lt;/div&gt;" style="rounded=1;whiteSpace=wrap;html=1;" parent="WIyWlLk6GJQsqaUBKTNV-1" vertex="1">
          <mxGeometry x="190" y="340" width="100" height="60" as="geometry" />
        </mxCell>
        <mxCell id="FIAD7fH9w6Ogacx7huTE-20" value="Lend Providing" style="rounded=1;whiteSpace=wrap;html=1;" parent="WIyWlLk6GJQsqaUBKTNV-1" vertex="1">
          <mxGeometry x="314" y="330" width="100" height="30" as="geometry" />
        </mxCell>
        <mxCell id="FIAD7fH9w6Ogacx7huTE-21" value="" style="endArrow=classic;html=1;rounded=0;entryX=0.75;entryY=0;entryDx=0;entryDy=0;exitX=0.5;exitY=1;exitDx=0;exitDy=0;" parent="WIyWlLk6GJQsqaUBKTNV-1" source="WIyWlLk6GJQsqaUBKTNV-7" target="FIAD7fH9w6Ogacx7huTE-15" edge="1">
          <mxGeometry width="50" height="50" relative="1" as="geometry">
            <mxPoint x="280" y="220" as="sourcePoint" />
            <mxPoint x="430" y="230" as="targetPoint" />
          </mxGeometry>
        </mxCell>
        <mxCell id="FIAD7fH9w6Ogacx7huTE-49" value="send from Treasury&lt;br&gt;to Allocate" style="edgeLabel;html=1;align=center;verticalAlign=middle;resizable=0;points=[];" parent="FIAD7fH9w6Ogacx7huTE-21" vertex="1" connectable="0">
          <mxGeometry x="0.4645" y="5" relative="1" as="geometry">
            <mxPoint x="57" y="-12" as="offset" />
          </mxGeometry>
        </mxCell>
        <mxCell id="FIAD7fH9w6Ogacx7huTE-25" value="" style="rounded=0;html=1;jettySize=auto;orthogonalLoop=1;fontSize=11;endArrow=block;endFill=0;endSize=8;strokeWidth=1;shadow=0;labelBackgroundColor=none;edgeStyle=orthogonalEdgeStyle;entryX=0.5;entryY=0;entryDx=0;entryDy=0;" parent="WIyWlLk6GJQsqaUBKTNV-1" source="FIAD7fH9w6Ogacx7huTE-29" target="FIAD7fH9w6Ogacx7huTE-30" edge="1">
          <mxGeometry relative="1" as="geometry">
            <mxPoint x="847.5" y="180" as="targetPoint" />
          </mxGeometry>
        </mxCell>
        <mxCell id="FIAD7fH9w6Ogacx7huTE-26" value="Portion Allowances" style="edgeLabel;html=1;align=center;verticalAlign=middle;resizable=0;points=[];" parent="FIAD7fH9w6Ogacx7huTE-25" vertex="1" connectable="0">
          <mxGeometry x="0.2" relative="1" as="geometry">
            <mxPoint x="-50" y="-13" as="offset" />
          </mxGeometry>
        </mxCell>
        <mxCell id="FIAD7fH9w6Ogacx7huTE-51" style="edgeStyle=orthogonalEdgeStyle;rounded=0;orthogonalLoop=1;jettySize=auto;html=1;exitX=0.75;exitY=0;exitDx=0;exitDy=0;entryX=0.75;entryY=1;entryDx=0;entryDy=0;" parent="WIyWlLk6GJQsqaUBKTNV-1" source="FIAD7fH9w6Ogacx7huTE-29" target="FIAD7fH9w6Ogacx7huTE-42" edge="1">
          <mxGeometry relative="1" as="geometry">
            <mxPoint x="970" y="70" as="targetPoint" />
            <Array as="points">
              <mxPoint x="878" y="70" />
            </Array>
          </mxGeometry>
        </mxCell>
        <mxCell id="FIAD7fH9w6Ogacx7huTE-52" value="Rewards" style="edgeLabel;html=1;align=center;verticalAlign=middle;resizable=0;points=[];" parent="FIAD7fH9w6Ogacx7huTE-51" vertex="1" connectable="0">
          <mxGeometry x="0.3294" y="2" relative="1" as="geometry">
            <mxPoint x="25" y="-10" as="offset" />
          </mxGeometry>
        </mxCell>
        <mxCell id="FIAD7fH9w6Ogacx7huTE-29" value="High Stakes Treasury" style="rounded=1;whiteSpace=wrap;html=1;fontSize=12;glass=0;strokeWidth=1;shadow=0;" parent="WIyWlLk6GJQsqaUBKTNV-1" vertex="1">
          <mxGeometry x="787.5" y="30" width="120" height="40" as="geometry" />
        </mxCell>
        <mxCell id="FIAD7fH9w6Ogacx7huTE-30" value="Finance Manager&lt;br&gt;(Configured for &quot;High Stakes&quot;)" style="rounded=1;whiteSpace=wrap;html=1;fontSize=12;glass=0;strokeWidth=1;shadow=0;" parent="WIyWlLk6GJQsqaUBKTNV-1" vertex="1">
          <mxGeometry x="787.5" y="125" width="120" height="50" as="geometry" />
        </mxCell>
        <mxCell id="FIAD7fH9w6Ogacx7huTE-71" style="edgeStyle=orthogonalEdgeStyle;rounded=0;orthogonalLoop=1;jettySize=auto;html=1;exitX=1;exitY=0.5;exitDx=0;exitDy=0;entryX=1;entryY=0.5;entryDx=0;entryDy=0;" parent="WIyWlLk6GJQsqaUBKTNV-1" source="FIAD7fH9w6Ogacx7huTE-35" target="FIAD7fH9w6Ogacx7huTE-42" edge="1">
          <mxGeometry relative="1" as="geometry" />
        </mxCell>
        <mxCell id="FIAD7fH9w6Ogacx7huTE-72" value="Revenue&lt;br&gt;Return" style="edgeLabel;html=1;align=center;verticalAlign=middle;resizable=0;points=[];" parent="FIAD7fH9w6Ogacx7huTE-71" vertex="1" connectable="0">
          <mxGeometry x="0.0065" y="-1" relative="1" as="geometry">
            <mxPoint x="-26" y="110" as="offset" />
          </mxGeometry>
        </mxCell>
        <mxCell id="FIAD7fH9w6Ogacx7huTE-35" value="High Stakes Adapter Set &lt;br&gt;(Separate Deployment per treasury)" style="rounded=0;whiteSpace=wrap;html=1;align=center;" parent="WIyWlLk6GJQsqaUBKTNV-1" vertex="1">
          <mxGeometry x="740" y="200" width="215" height="80" as="geometry" />
        </mxCell>
        <mxCell id="FIAD7fH9w6Ogacx7huTE-41" value="" style="endArrow=classic;html=1;rounded=0;entryX=0.5;entryY=0;entryDx=0;entryDy=0;exitX=0.5;exitY=1;exitDx=0;exitDy=0;" parent="WIyWlLk6GJQsqaUBKTNV-1" source="FIAD7fH9w6Ogacx7huTE-30" target="FIAD7fH9w6Ogacx7huTE-35" edge="1">
          <mxGeometry width="50" height="50" relative="1" as="geometry">
            <mxPoint x="737.5" y="330" as="sourcePoint" />
            <mxPoint x="887.5" y="340" as="targetPoint" />
          </mxGeometry>
        </mxCell>
        <mxCell id="FIAD7fH9w6Ogacx7huTE-42" value="High Stakes Staking" style="rounded=1;whiteSpace=wrap;html=1;fontSize=12;glass=0;strokeWidth=1;shadow=0;" parent="WIyWlLk6GJQsqaUBKTNV-1" vertex="1">
          <mxGeometry x="787.5" y="-80" width="120" height="40" as="geometry" />
        </mxCell>
        <mxCell id="FIAD7fH9w6Ogacx7huTE-43" value="" style="endArrow=classic;html=1;rounded=0;exitX=0.5;exitY=1;exitDx=0;exitDy=0;entryX=0.5;entryY=0;entryDx=0;entryDy=0;" parent="WIyWlLk6GJQsqaUBKTNV-1" source="FIAD7fH9w6Ogacx7huTE-42" target="FIAD7fH9w6Ogacx7huTE-29" edge="1">
          <mxGeometry width="50" height="50" relative="1" as="geometry">
            <mxPoint x="727.5" y="230" as="sourcePoint" />
            <mxPoint x="777.5" y="180" as="targetPoint" />
          </mxGeometry>
        </mxCell>
        <mxCell id="FIAD7fH9w6Ogacx7huTE-53" value="Deposit" style="edgeLabel;html=1;align=center;verticalAlign=middle;resizable=0;points=[];" parent="FIAD7fH9w6Ogacx7huTE-43" vertex="1" connectable="0">
          <mxGeometry x="-0.35" y="1" relative="1" as="geometry">
            <mxPoint x="-28" y="14" as="offset" />
          </mxGeometry>
        </mxCell>
        <mxCell id="FIAD7fH9w6Ogacx7huTE-47" value="" style="endArrow=classic;html=1;rounded=0;exitX=0.25;exitY=0;exitDx=0;exitDy=0;entryX=0.25;entryY=1;entryDx=0;entryDy=0;" parent="WIyWlLk6GJQsqaUBKTNV-1" source="FIAD7fH9w6Ogacx7huTE-15" target="WIyWlLk6GJQsqaUBKTNV-3" edge="1">
          <mxGeometry width="50" height="50" relative="1" as="geometry">
            <mxPoint x="670" y="270" as="sourcePoint" />
            <mxPoint x="720" y="220" as="targetPoint" />
          </mxGeometry>
        </mxCell>
        <mxCell id="FIAD7fH9w6Ogacx7huTE-48" value="Revenue&lt;br&gt;Return" style="edgeLabel;html=1;align=center;verticalAlign=middle;resizable=0;points=[];" parent="FIAD7fH9w6Ogacx7huTE-47" vertex="1" connectable="0">
          <mxGeometry x="-0.1852" y="1" relative="1" as="geometry">
            <mxPoint x="-28" y="80" as="offset" />
          </mxGeometry>
        </mxCell>
        <mxCell id="FIAD7fH9w6Ogacx7huTE-56" value="" style="rounded=0;html=1;jettySize=auto;orthogonalLoop=1;fontSize=11;endArrow=block;endFill=0;endSize=8;strokeWidth=1;shadow=0;labelBackgroundColor=none;edgeStyle=orthogonalEdgeStyle;entryX=0.5;entryY=0;entryDx=0;entryDy=0;" parent="WIyWlLk6GJQsqaUBKTNV-1" source="FIAD7fH9w6Ogacx7huTE-61" target="FIAD7fH9w6Ogacx7huTE-62" edge="1">
          <mxGeometry relative="1" as="geometry">
            <mxPoint x="1127.5" y="180" as="targetPoint" />
          </mxGeometry>
        </mxCell>
        <mxCell id="FIAD7fH9w6Ogacx7huTE-57" value="Portion Allowances" style="edgeLabel;html=1;align=center;verticalAlign=middle;resizable=0;points=[];" parent="FIAD7fH9w6Ogacx7huTE-56" vertex="1" connectable="0">
          <mxGeometry x="0.2" relative="1" as="geometry">
            <mxPoint x="-50" y="-13" as="offset" />
          </mxGeometry>
        </mxCell>
        <mxCell id="FIAD7fH9w6Ogacx7huTE-58" style="edgeStyle=orthogonalEdgeStyle;rounded=0;orthogonalLoop=1;jettySize=auto;html=1;exitX=0.75;exitY=0;exitDx=0;exitDy=0;entryX=0.75;entryY=1;entryDx=0;entryDy=0;" parent="WIyWlLk6GJQsqaUBKTNV-1" source="FIAD7fH9w6Ogacx7huTE-61" target="FIAD7fH9w6Ogacx7huTE-65" edge="1">
          <mxGeometry relative="1" as="geometry">
            <mxPoint x="1250" y="70" as="targetPoint" />
            <Array as="points">
              <mxPoint x="1158" y="70" />
            </Array>
          </mxGeometry>
        </mxCell>
        <mxCell id="FIAD7fH9w6Ogacx7huTE-59" value="Rewards" style="edgeLabel;html=1;align=center;verticalAlign=middle;resizable=0;points=[];" parent="FIAD7fH9w6Ogacx7huTE-58" vertex="1" connectable="0">
          <mxGeometry x="0.3294" y="2" relative="1" as="geometry">
            <mxPoint x="30" y="14" as="offset" />
          </mxGeometry>
        </mxCell>
        <mxCell id="FIAD7fH9w6Ogacx7huTE-60" value="Fees" style="edgeLabel;html=1;align=center;verticalAlign=middle;resizable=0;points=[];" parent="WIyWlLk6GJQsqaUBKTNV-1" vertex="1" connectable="0">
          <mxGeometry x="1040.5" y="40" as="geometry" />
        </mxCell>
        <mxCell id="FIAD7fH9w6Ogacx7huTE-61" value="Mid Stakes Treasury" style="rounded=1;whiteSpace=wrap;html=1;fontSize=12;glass=0;strokeWidth=1;shadow=0;" parent="WIyWlLk6GJQsqaUBKTNV-1" vertex="1">
          <mxGeometry x="1067.5" y="30" width="120" height="40" as="geometry" />
        </mxCell>
        <mxCell id="FIAD7fH9w6Ogacx7huTE-62" value="Finance Manager&lt;br&gt;(Configured for &quot;Mid Stakes&quot;)" style="rounded=1;whiteSpace=wrap;html=1;fontSize=12;glass=0;strokeWidth=1;shadow=0;" parent="WIyWlLk6GJQsqaUBKTNV-1" vertex="1">
          <mxGeometry x="1067.5" y="125" width="120" height="50" as="geometry" />
        </mxCell>
        <mxCell id="FIAD7fH9w6Ogacx7huTE-73" style="edgeStyle=orthogonalEdgeStyle;rounded=0;orthogonalLoop=1;jettySize=auto;html=1;exitX=1;exitY=0.5;exitDx=0;exitDy=0;entryX=1;entryY=0.5;entryDx=0;entryDy=0;" parent="WIyWlLk6GJQsqaUBKTNV-1" source="FIAD7fH9w6Ogacx7huTE-63" target="FIAD7fH9w6Ogacx7huTE-65" edge="1">
          <mxGeometry relative="1" as="geometry" />
        </mxCell>
        <mxCell id="FIAD7fH9w6Ogacx7huTE-74" value="Revenue&lt;br&gt;Return" style="edgeLabel;html=1;align=center;verticalAlign=middle;resizable=0;points=[];" parent="FIAD7fH9w6Ogacx7huTE-73" vertex="1" connectable="0">
          <mxGeometry x="-0.5819" y="-4" relative="1" as="geometry">
            <mxPoint x="-29" y="-4" as="offset" />
          </mxGeometry>
        </mxCell>
        <mxCell id="FIAD7fH9w6Ogacx7huTE-63" value="Mid Stakes Adapter Set &lt;br&gt;(Separate Deployment per treasury)" style="rounded=0;whiteSpace=wrap;html=1;align=center;" parent="WIyWlLk6GJQsqaUBKTNV-1" vertex="1">
          <mxGeometry x="1020" y="200" width="215" height="80" as="geometry" />
        </mxCell>
        <mxCell id="FIAD7fH9w6Ogacx7huTE-64" value="" style="endArrow=classic;html=1;rounded=0;entryX=0.5;entryY=0;entryDx=0;entryDy=0;exitX=0.5;exitY=1;exitDx=0;exitDy=0;" parent="WIyWlLk6GJQsqaUBKTNV-1" source="FIAD7fH9w6Ogacx7huTE-62" target="FIAD7fH9w6Ogacx7huTE-63" edge="1">
          <mxGeometry width="50" height="50" relative="1" as="geometry">
            <mxPoint x="1017.5" y="330" as="sourcePoint" />
            <mxPoint x="1167.5" y="340" as="targetPoint" />
          </mxGeometry>
        </mxCell>
        <mxCell id="FIAD7fH9w6Ogacx7huTE-65" value="Mid Stakes Staking" style="rounded=1;whiteSpace=wrap;html=1;fontSize=12;glass=0;strokeWidth=1;shadow=0;" parent="WIyWlLk6GJQsqaUBKTNV-1" vertex="1">
          <mxGeometry x="1067.5" y="-80" width="120" height="40" as="geometry" />
        </mxCell>
        <mxCell id="FIAD7fH9w6Ogacx7huTE-66" value="" style="endArrow=classic;html=1;rounded=0;exitX=0.5;exitY=1;exitDx=0;exitDy=0;entryX=0.5;entryY=0;entryDx=0;entryDy=0;" parent="WIyWlLk6GJQsqaUBKTNV-1" source="FIAD7fH9w6Ogacx7huTE-65" target="FIAD7fH9w6Ogacx7huTE-61" edge="1">
          <mxGeometry width="50" height="50" relative="1" as="geometry">
            <mxPoint x="1007.5" y="230" as="sourcePoint" />
            <mxPoint x="1057.5" y="180" as="targetPoint" />
          </mxGeometry>
        </mxCell>
        <mxCell id="FIAD7fH9w6Ogacx7huTE-67" value="Deposit" style="edgeLabel;html=1;align=center;verticalAlign=middle;resizable=0;points=[];" parent="FIAD7fH9w6Ogacx7huTE-66" vertex="1" connectable="0">
          <mxGeometry x="-0.35" y="1" relative="1" as="geometry">
            <mxPoint x="-28" y="14" as="offset" />
          </mxGeometry>
        </mxCell>
        <mxCell id="FIAD7fH9w6Ogacx7huTE-75" value="" style="rounded=0;html=1;jettySize=auto;orthogonalLoop=1;fontSize=11;endArrow=block;endFill=0;endSize=8;strokeWidth=1;shadow=0;labelBackgroundColor=none;edgeStyle=orthogonalEdgeStyle;entryX=0.5;entryY=0;entryDx=0;entryDy=0;" parent="WIyWlLk6GJQsqaUBKTNV-1" source="FIAD7fH9w6Ogacx7huTE-80" target="FIAD7fH9w6Ogacx7huTE-81" edge="1">
          <mxGeometry relative="1" as="geometry">
            <mxPoint x="1407.5" y="180" as="targetPoint" />
          </mxGeometry>
        </mxCell>
        <mxCell id="FIAD7fH9w6Ogacx7huTE-76" value="Portion Allowances" style="edgeLabel;html=1;align=center;verticalAlign=middle;resizable=0;points=[];" parent="FIAD7fH9w6Ogacx7huTE-75" vertex="1" connectable="0">
          <mxGeometry x="0.2" relative="1" as="geometry">
            <mxPoint x="-50" y="-13" as="offset" />
          </mxGeometry>
        </mxCell>
        <mxCell id="FIAD7fH9w6Ogacx7huTE-77" style="edgeStyle=orthogonalEdgeStyle;rounded=0;orthogonalLoop=1;jettySize=auto;html=1;exitX=0.75;exitY=0;exitDx=0;exitDy=0;entryX=0.75;entryY=1;entryDx=0;entryDy=0;" parent="WIyWlLk6GJQsqaUBKTNV-1" source="FIAD7fH9w6Ogacx7huTE-80" target="FIAD7fH9w6Ogacx7huTE-86" edge="1">
          <mxGeometry relative="1" as="geometry">
            <mxPoint x="1530" y="70" as="targetPoint" />
            <Array as="points">
              <mxPoint x="1438" y="70" />
            </Array>
          </mxGeometry>
        </mxCell>
        <mxCell id="FIAD7fH9w6Ogacx7huTE-78" value="Rewards" style="edgeLabel;html=1;align=center;verticalAlign=middle;resizable=0;points=[];" parent="FIAD7fH9w6Ogacx7huTE-77" vertex="1" connectable="0">
          <mxGeometry x="0.3294" y="2" relative="1" as="geometry">
            <mxPoint x="30" y="14" as="offset" />
          </mxGeometry>
        </mxCell>
        <mxCell id="FIAD7fH9w6Ogacx7huTE-79" value="Fees" style="edgeLabel;html=1;align=center;verticalAlign=middle;resizable=0;points=[];" parent="WIyWlLk6GJQsqaUBKTNV-1" vertex="1" connectable="0">
          <mxGeometry x="1320.5" y="40" as="geometry" />
        </mxCell>
        <mxCell id="FIAD7fH9w6Ogacx7huTE-80" value="Low Stakes Treasury" style="rounded=1;whiteSpace=wrap;html=1;fontSize=12;glass=0;strokeWidth=1;shadow=0;" parent="WIyWlLk6GJQsqaUBKTNV-1" vertex="1">
          <mxGeometry x="1347.5" y="30" width="120" height="40" as="geometry" />
        </mxCell>
        <mxCell id="FIAD7fH9w6Ogacx7huTE-81" value="Finance Manager&lt;br&gt;(Configured for &quot;Low Stakes&quot;)" style="rounded=1;whiteSpace=wrap;html=1;fontSize=12;glass=0;strokeWidth=1;shadow=0;" parent="WIyWlLk6GJQsqaUBKTNV-1" vertex="1">
          <mxGeometry x="1347.5" y="125" width="120" height="50" as="geometry" />
        </mxCell>
        <mxCell id="FIAD7fH9w6Ogacx7huTE-82" style="edgeStyle=orthogonalEdgeStyle;rounded=0;orthogonalLoop=1;jettySize=auto;html=1;exitX=1;exitY=0.5;exitDx=0;exitDy=0;entryX=1;entryY=0.5;entryDx=0;entryDy=0;" parent="WIyWlLk6GJQsqaUBKTNV-1" source="FIAD7fH9w6Ogacx7huTE-84" target="FIAD7fH9w6Ogacx7huTE-86" edge="1">
          <mxGeometry relative="1" as="geometry" />
        </mxCell>
        <mxCell id="FIAD7fH9w6Ogacx7huTE-83" value="Revenue&lt;br&gt;Return" style="edgeLabel;html=1;align=center;verticalAlign=middle;resizable=0;points=[];" parent="FIAD7fH9w6Ogacx7huTE-82" vertex="1" connectable="0">
          <mxGeometry x="-0.5819" y="-4" relative="1" as="geometry">
            <mxPoint x="-29" y="-4" as="offset" />
          </mxGeometry>
        </mxCell>
        <mxCell id="FIAD7fH9w6Ogacx7huTE-84" value="Low Stakes Adapter Set &lt;br&gt;(Separate Deployment per treasury)" style="rounded=0;whiteSpace=wrap;html=1;align=center;" parent="WIyWlLk6GJQsqaUBKTNV-1" vertex="1">
          <mxGeometry x="1300" y="200" width="215" height="80" as="geometry" />
        </mxCell>
        <mxCell id="FIAD7fH9w6Ogacx7huTE-85" value="" style="endArrow=classic;html=1;rounded=0;entryX=0.5;entryY=0;entryDx=0;entryDy=0;exitX=0.5;exitY=1;exitDx=0;exitDy=0;" parent="WIyWlLk6GJQsqaUBKTNV-1" source="FIAD7fH9w6Ogacx7huTE-81" target="FIAD7fH9w6Ogacx7huTE-84" edge="1">
          <mxGeometry width="50" height="50" relative="1" as="geometry">
            <mxPoint x="1297.5" y="330" as="sourcePoint" />
            <mxPoint x="1447.5" y="340" as="targetPoint" />
          </mxGeometry>
        </mxCell>
        <mxCell id="FIAD7fH9w6Ogacx7huTE-86" value="Low Stakes Staking" style="rounded=1;whiteSpace=wrap;html=1;fontSize=12;glass=0;strokeWidth=1;shadow=0;" parent="WIyWlLk6GJQsqaUBKTNV-1" vertex="1">
          <mxGeometry x="1347.5" y="-80" width="120" height="40" as="geometry" />
        </mxCell>
        <mxCell id="FIAD7fH9w6Ogacx7huTE-87" value="" style="endArrow=classic;html=1;rounded=0;exitX=0.5;exitY=1;exitDx=0;exitDy=0;entryX=0.5;entryY=0;entryDx=0;entryDy=0;" parent="WIyWlLk6GJQsqaUBKTNV-1" source="FIAD7fH9w6Ogacx7huTE-86" target="FIAD7fH9w6Ogacx7huTE-80" edge="1">
          <mxGeometry width="50" height="50" relative="1" as="geometry">
            <mxPoint x="1287.5" y="230" as="sourcePoint" />
            <mxPoint x="1337.5" y="180" as="targetPoint" />
          </mxGeometry>
        </mxCell>
        <mxCell id="FIAD7fH9w6Ogacx7huTE-88" value="Deposit" style="edgeLabel;html=1;align=center;verticalAlign=middle;resizable=0;points=[];" parent="FIAD7fH9w6Ogacx7huTE-87" vertex="1" connectable="0">
          <mxGeometry x="-0.35" y="1" relative="1" as="geometry">
            <mxPoint x="-28" y="14" as="offset" />
          </mxGeometry>
        </mxCell>
        <mxCell id="gamc50u9EzoZNg_85G7x-7" style="edgeStyle=orthogonalEdgeStyle;rounded=0;orthogonalLoop=1;jettySize=auto;html=1;startArrow=none;" edge="1" parent="WIyWlLk6GJQsqaUBKTNV-1" source="gamc50u9EzoZNg_85G7x-38" target="gamc50u9EzoZNg_85G7x-1">
          <mxGeometry relative="1" as="geometry">
            <Array as="points">
              <mxPoint x="690" y="640" />
            </Array>
          </mxGeometry>
        </mxCell>
        <mxCell id="gamc50u9EzoZNg_85G7x-11" style="edgeStyle=orthogonalEdgeStyle;rounded=0;orthogonalLoop=1;jettySize=auto;html=1;exitX=0.5;exitY=1;exitDx=0;exitDy=0;entryX=1;entryY=0.5;entryDx=0;entryDy=0;" edge="1" parent="WIyWlLk6GJQsqaUBKTNV-1" source="gamc50u9EzoZNg_85G7x-0" target="gamc50u9EzoZNg_85G7x-2">
          <mxGeometry relative="1" as="geometry">
            <mxPoint x="230" y="620" as="targetPoint" />
            <Array as="points">
              <mxPoint x="587" y="680" />
            </Array>
          </mxGeometry>
        </mxCell>
        <mxCell id="gamc50u9EzoZNg_85G7x-40" style="edgeStyle=orthogonalEdgeStyle;rounded=0;orthogonalLoop=1;jettySize=auto;html=1;entryX=0;entryY=0.433;entryDx=0;entryDy=0;entryPerimeter=0;exitX=0.5;exitY=1;exitDx=0;exitDy=0;" edge="1" parent="WIyWlLk6GJQsqaUBKTNV-1" source="gamc50u9EzoZNg_85G7x-0" target="gamc50u9EzoZNg_85G7x-38">
          <mxGeometry relative="1" as="geometry" />
        </mxCell>
        <mxCell id="gamc50u9EzoZNg_85G7x-0" value="Treasury" style="rounded=1;whiteSpace=wrap;html=1;" vertex="1" parent="WIyWlLk6GJQsqaUBKTNV-1">
          <mxGeometry x="527" y="555" width="120" height="60" as="geometry" />
        </mxCell>
        <mxCell id="gamc50u9EzoZNg_85G7x-1" value="Low Stakes Manager" style="rounded=1;whiteSpace=wrap;html=1;" vertex="1" parent="WIyWlLk6GJQsqaUBKTNV-1">
          <mxGeometry x="680" y="660" width="120" height="60" as="geometry" />
        </mxCell>
        <mxCell id="gamc50u9EzoZNg_85G7x-20" style="edgeStyle=orthogonalEdgeStyle;rounded=0;orthogonalLoop=1;jettySize=auto;html=1;entryX=0.5;entryY=0;entryDx=0;entryDy=0;" edge="1" parent="WIyWlLk6GJQsqaUBKTNV-1" source="gamc50u9EzoZNg_85G7x-2" target="gamc50u9EzoZNg_85G7x-16">
          <mxGeometry relative="1" as="geometry" />
        </mxCell>
        <mxCell id="gamc50u9EzoZNg_85G7x-2" value="Reserves Manager" style="rounded=1;whiteSpace=wrap;html=1;" vertex="1" parent="WIyWlLk6GJQsqaUBKTNV-1">
          <mxGeometry x="407" y="650" width="120" height="60" as="geometry" />
        </mxCell>
        <mxCell id="gamc50u9EzoZNg_85G7x-3" value="Sky" style="rounded=1;whiteSpace=wrap;html=1;" vertex="1" parent="WIyWlLk6GJQsqaUBKTNV-1">
          <mxGeometry x="747" y="850" width="120" height="60" as="geometry" />
        </mxCell>
        <mxCell id="gamc50u9EzoZNg_85G7x-4" value="Shadeswap LP" style="rounded=1;whiteSpace=wrap;html=1;" vertex="1" parent="WIyWlLk6GJQsqaUBKTNV-1">
          <mxGeometry x="880" y="850" width="120" height="60" as="geometry" />
        </mxCell>
        <mxCell id="gamc50u9EzoZNg_85G7x-6" style="edgeStyle=orthogonalEdgeStyle;rounded=0;orthogonalLoop=1;jettySize=auto;html=1;exitX=0.5;exitY=1;exitDx=0;exitDy=0;" edge="1" parent="WIyWlLk6GJQsqaUBKTNV-1" source="gamc50u9EzoZNg_85G7x-5" target="gamc50u9EzoZNg_85G7x-1">
          <mxGeometry relative="1" as="geometry">
            <Array as="points" />
          </mxGeometry>
        </mxCell>
        <mxCell id="gamc50u9EzoZNg_85G7x-5" value="SHD Staking" style="rounded=1;whiteSpace=wrap;html=1;" vertex="1" parent="WIyWlLk6GJQsqaUBKTNV-1">
          <mxGeometry x="680" y="540" width="120" height="60" as="geometry" />
        </mxCell>
        <mxCell id="gamc50u9EzoZNg_85G7x-9" value="ShadeSwap &lt;br&gt;Rewards" style="rounded=1;whiteSpace=wrap;html=1;" vertex="1" parent="WIyWlLk6GJQsqaUBKTNV-1">
          <mxGeometry x="747" y="920" width="120" height="60" as="geometry" />
        </mxCell>
        <mxCell id="gamc50u9EzoZNg_85G7x-10" value="SCRT Staking" style="rounded=1;whiteSpace=wrap;html=1;" vertex="1" parent="WIyWlLk6GJQsqaUBKTNV-1">
          <mxGeometry x="880" y="920" width="120" height="60" as="geometry" />
        </mxCell>
        <mxCell id="gamc50u9EzoZNg_85G7x-16" value="Market Buy/Sell Shadeswap" style="rounded=1;whiteSpace=wrap;html=1;" vertex="1" parent="WIyWlLk6GJQsqaUBKTNV-1">
          <mxGeometry x="407" y="820" width="120" height="60" as="geometry" />
        </mxCell>
        <mxCell id="gamc50u9EzoZNg_85G7x-21" value="&lt;div style=&quot;&quot;&gt;&lt;span style=&quot;background-color: initial;&quot;&gt;-Treasury Allowance to reserves manager&lt;/span&gt;&lt;/div&gt;&lt;div style=&quot;&quot;&gt;&lt;span style=&quot;background-color: initial;&quot;&gt;-Reserves Manager checks balance on&amp;nbsp;&lt;/span&gt;&lt;/div&gt;&lt;div style=&quot;&quot;&gt;&lt;span style=&quot;background-color: initial;&quot;&gt;&lt;span style=&quot;white-space: pre;&quot;&gt;	&lt;/span&gt;update and will trade assets to maintain&lt;/span&gt;&lt;/div&gt;&lt;div style=&quot;&quot;&gt;&lt;span style=&quot;background-color: initial;&quot;&gt;- e.g. algo stable depegs down dramatically&lt;/span&gt;&lt;/div&gt;&lt;div style=&quot;&quot;&gt;&lt;span style=&quot;background-color: initial;&quot;&gt;&lt;span style=&quot;white-space: pre;&quot;&gt;	&lt;/span&gt;buy SILK with SHD and/or other assets (emergency)&lt;/span&gt;&lt;/div&gt;&lt;div style=&quot;&quot;&gt;&lt;span style=&quot;background-color: initial;&quot;&gt;- Reserves manager can do all asset conversion, minting,&amp;nbsp;&lt;/span&gt;&lt;/div&gt;" style="text;html=1;align=left;verticalAlign=middle;resizable=0;points=[];autosize=1;strokeColor=none;fillColor=none;" vertex="1" parent="WIyWlLk6GJQsqaUBKTNV-1">
          <mxGeometry x="80" y="725" width="320" height="90" as="geometry" />
        </mxCell>
        <mxCell id="gamc50u9EzoZNg_85G7x-22" value="Mid Stakes Manager" style="rounded=1;whiteSpace=wrap;html=1;" vertex="1" parent="WIyWlLk6GJQsqaUBKTNV-1">
          <mxGeometry x="810" y="660" width="120" height="60" as="geometry" />
        </mxCell>
        <mxCell id="gamc50u9EzoZNg_85G7x-23" value="High Stakes Manager" style="rounded=1;whiteSpace=wrap;html=1;" vertex="1" parent="WIyWlLk6GJQsqaUBKTNV-1">
          <mxGeometry x="940" y="660" width="120" height="60" as="geometry" />
        </mxCell>
        <mxCell id="gamc50u9EzoZNg_85G7x-30" style="edgeStyle=orthogonalEdgeStyle;rounded=0;orthogonalLoop=1;jettySize=auto;html=1;entryX=0.5;entryY=0;entryDx=0;entryDy=0;" edge="1" parent="WIyWlLk6GJQsqaUBKTNV-1" source="gamc50u9EzoZNg_85G7x-27" target="gamc50u9EzoZNg_85G7x-22">
          <mxGeometry relative="1" as="geometry" />
        </mxCell>
        <mxCell id="gamc50u9EzoZNg_85G7x-27" value="SHD Staking" style="rounded=1;whiteSpace=wrap;html=1;" vertex="1" parent="WIyWlLk6GJQsqaUBKTNV-1">
          <mxGeometry x="810" y="540" width="120" height="60" as="geometry" />
        </mxCell>
        <mxCell id="gamc50u9EzoZNg_85G7x-29" style="edgeStyle=orthogonalEdgeStyle;rounded=0;orthogonalLoop=1;jettySize=auto;html=1;entryX=0.5;entryY=0;entryDx=0;entryDy=0;" edge="1" parent="WIyWlLk6GJQsqaUBKTNV-1" source="gamc50u9EzoZNg_85G7x-28" target="gamc50u9EzoZNg_85G7x-23">
          <mxGeometry relative="1" as="geometry" />
        </mxCell>
        <mxCell id="gamc50u9EzoZNg_85G7x-28" value="SHD Staking" style="rounded=1;whiteSpace=wrap;html=1;" vertex="1" parent="WIyWlLk6GJQsqaUBKTNV-1">
          <mxGeometry x="940" y="540" width="120" height="60" as="geometry" />
        </mxCell>
        <mxCell id="gamc50u9EzoZNg_85G7x-33" value="Sienna/Secretswap/DRO LP/Staking" style="rounded=1;whiteSpace=wrap;html=1;" vertex="1" parent="WIyWlLk6GJQsqaUBKTNV-1">
          <mxGeometry x="737.5" y="1090" width="150" height="60" as="geometry" />
        </mxCell>
        <mxCell id="gamc50u9EzoZNg_85G7x-34" value="ATOM/OSMO/JUNO&lt;br&gt;EVMOS Staking" style="rounded=1;whiteSpace=wrap;html=1;" vertex="1" parent="WIyWlLk6GJQsqaUBKTNV-1">
          <mxGeometry x="737.5" y="1170" width="150" height="60" as="geometry" />
        </mxCell>
        <mxCell id="gamc50u9EzoZNg_85G7x-35" value="Sienna/Secretswap/DRO LP" style="rounded=1;whiteSpace=wrap;html=1;" vertex="1" parent="WIyWlLk6GJQsqaUBKTNV-1">
          <mxGeometry x="930" y="1090" width="150" height="60" as="geometry" />
        </mxCell>
        <mxCell id="gamc50u9EzoZNg_85G7x-36" value="Scrt Staking" style="rounded=1;whiteSpace=wrap;html=1;" vertex="1" parent="WIyWlLk6GJQsqaUBKTNV-1">
          <mxGeometry x="747" y="990" width="120" height="60" as="geometry" />
        </mxCell>
        <mxCell id="gamc50u9EzoZNg_85G7x-37" value="Stkd-SCRT" style="rounded=1;whiteSpace=wrap;html=1;" vertex="1" parent="WIyWlLk6GJQsqaUBKTNV-1">
          <mxGeometry x="1052.5" y="850" width="150" height="60" as="geometry" />
        </mxCell>
        <mxCell id="gamc50u9EzoZNg_85G7x-44" value="&lt;h1&gt;IBC Chain (ATOM/OSMO)&lt;/h1&gt;" style="rounded=0;whiteSpace=wrap;html=1;dashed=1;align=left;verticalAlign=top;" vertex="1" parent="WIyWlLk6GJQsqaUBKTNV-1">
          <mxGeometry x="1370" y="522.5" width="450" height="335" as="geometry" />
        </mxCell>
        <mxCell id="gamc50u9EzoZNg_85G7x-49" style="edgeStyle=orthogonalEdgeStyle;rounded=0;orthogonalLoop=1;jettySize=auto;html=1;entryX=0;entryY=0.5;entryDx=0;entryDy=0;" edge="1" parent="WIyWlLk6GJQsqaUBKTNV-1" source="gamc50u9EzoZNg_85G7x-45" target="gamc50u9EzoZNg_85G7x-47">
          <mxGeometry relative="1" as="geometry">
            <Array as="points">
              <mxPoint x="1590" y="698" />
              <mxPoint x="1590" y="650" />
            </Array>
          </mxGeometry>
        </mxCell>
        <mxCell id="gamc50u9EzoZNg_85G7x-50" style="edgeStyle=orthogonalEdgeStyle;rounded=0;orthogonalLoop=1;jettySize=auto;html=1;" edge="1" parent="WIyWlLk6GJQsqaUBKTNV-1" source="gamc50u9EzoZNg_85G7x-45" target="gamc50u9EzoZNg_85G7x-46">
          <mxGeometry relative="1" as="geometry">
            <Array as="points">
              <mxPoint x="1590" y="698" />
              <mxPoint x="1590" y="722" />
            </Array>
          </mxGeometry>
        </mxCell>
        <mxCell id="gamc50u9EzoZNg_85G7x-51" value="Funds &lt;br&gt;deposit/withdraw" style="edgeLabel;html=1;align=center;verticalAlign=middle;resizable=0;points=[];" vertex="1" connectable="0" parent="gamc50u9EzoZNg_85G7x-50">
          <mxGeometry x="-0.4493" y="1" relative="1" as="geometry">
            <mxPoint x="-2" y="-67" as="offset" />
          </mxGeometry>
        </mxCell>
        <mxCell id="gamc50u9EzoZNg_85G7x-45" value="Relay/Port" style="rounded=1;whiteSpace=wrap;html=1;" vertex="1" parent="WIyWlLk6GJQsqaUBKTNV-1">
          <mxGeometry x="1390" y="660" width="150" height="60" as="geometry" />
        </mxCell>
        <mxCell id="gamc50u9EzoZNg_85G7x-46" value="L1 Staking" style="rounded=1;whiteSpace=wrap;html=1;" vertex="1" parent="WIyWlLk6GJQsqaUBKTNV-1">
          <mxGeometry x="1630" y="692.5" width="150" height="60" as="geometry" />
        </mxCell>
        <mxCell id="gamc50u9EzoZNg_85G7x-47" value="DEX Providing" style="rounded=1;whiteSpace=wrap;html=1;" vertex="1" parent="WIyWlLk6GJQsqaUBKTNV-1">
          <mxGeometry x="1630" y="620" width="150" height="60" as="geometry" />
        </mxCell>
        <mxCell id="gamc50u9EzoZNg_85G7x-48" value="&lt;p&gt;Maybe need to send funds,&amp;nbsp;&lt;span style=&quot;background-color: initial;&quot;&gt;then execute &quot;update&quot; from bot&lt;/span&gt;&lt;/p&gt;&lt;p&gt;&lt;span style=&quot;background-color: initial;&quot;&gt;unless there can be a callback from L1 send (or until snip-20 IBC).&lt;/span&gt;&lt;/p&gt;&lt;p&gt;&lt;span style=&quot;background-color: initial;&quot;&gt;Relayer implementation may be needed for &quot;unbond&quot;&lt;/span&gt;&lt;/p&gt;" style="text;html=1;align=left;verticalAlign=middle;resizable=0;points=[];autosize=1;strokeColor=none;fillColor=none;" vertex="1" parent="WIyWlLk6GJQsqaUBKTNV-1">
          <mxGeometry x="1390" y="737.5" width="370" height="100" as="geometry" />
        </mxCell>
        <mxCell id="gamc50u9EzoZNg_85G7x-54" value="Relay/Port" style="rounded=1;whiteSpace=wrap;html=1;" vertex="1" parent="WIyWlLk6GJQsqaUBKTNV-1">
          <mxGeometry x="1130" y="660" width="150" height="60" as="geometry" />
        </mxCell>
        <mxCell id="gamc50u9EzoZNg_85G7x-55" value="" style="edgeStyle=orthogonalEdgeStyle;rounded=0;orthogonalLoop=1;jettySize=auto;html=1;entryX=0;entryY=0.5;entryDx=0;entryDy=0;endArrow=none;" edge="1" parent="WIyWlLk6GJQsqaUBKTNV-1" source="gamc50u9EzoZNg_85G7x-38" target="gamc50u9EzoZNg_85G7x-54">
          <mxGeometry relative="1" as="geometry">
            <mxPoint x="1080" y="690" as="sourcePoint" />
            <mxPoint x="1370" y="690" as="targetPoint" />
          </mxGeometry>
        </mxCell>
      </root>
    </mxGraphModel>
  </diagram>
</mxfile>
